<mxfile host="65bd71144e">
    <diagram id="E9gtpwOCtaZFGRqht5vM" name="Page-1">
        <mxGraphModel dx="701" dy="426" grid="1" gridSize="10" guides="1" tooltips="1" connect="1" arrows="1" fold="1" page="1" pageScale="1" pageWidth="850" pageHeight="1100" math="0" shadow="0">
            <root>
                <mxCell id="0"/>
                <mxCell id="1" parent="0"/>
                <mxCell id="78" value="ns: Agent" style="rounded=0;whiteSpace=wrap;html=1;snapToPoint=1;points=[[0.1,0],[0.2,0],[0.3,0],[0.4,0],[0.5,0],[0.6,0],[0.7,0],[0.8,0],[0.9,0],[0,0.1],[0,0.3],[0,0.5],[0,0.7],[0,0.9],[0.1,1],[0.2,1],[0.3,1],[0.4,1],[0.5,1],[0.6,1],[0.7,1],[0.8,1],[0.9,1],[1,0.1],[1,0.3],[1,0.5],[1,0.7],[1,0.9]];" parent="1" vertex="1">
                    <mxGeometry x="110" y="400" width="95" height="40" as="geometry"/>
                </mxCell>
                <mxCell id="79" value="ns: AgentRole" style="rounded=0;whiteSpace=wrap;html=1;snapToPoint=1;points=[[0.1,0],[0.2,0],[0.3,0],[0.4,0],[0.5,0],[0.6,0],[0.7,0],[0.8,0],[0.9,0],[0,0.1],[0,0.3],[0,0.5],[0,0.7],[0,0.9],[0.1,1],[0.2,1],[0.3,1],[0.4,1],[0.5,1],[0.6,1],[0.7,1],[0.8,1],[0.9,1],[1,0.1],[1,0.3],[1,0.5],[1,0.7],[1,0.9]];" parent="1" vertex="1">
                    <mxGeometry x="160" y="260" width="100" height="40" as="geometry"/>
                </mxCell>
                <mxCell id="80" value="ns: Event" style="rounded=0;whiteSpace=wrap;html=1;snapToPoint=1;points=[[0.1,0],[0.2,0],[0.3,0],[0.4,0],[0.5,0],[0.6,0],[0.7,0],[0.8,0],[0.9,0],[0,0.1],[0,0.3],[0,0.5],[0,0.7],[0,0.9],[0.1,1],[0.2,1],[0.3,1],[0.4,1],[0.5,1],[0.6,1],[0.7,1],[0.8,1],[0.9,1],[1,0.1],[1,0.3],[1,0.5],[1,0.7],[1,0.9]];" parent="1" vertex="1">
                    <mxGeometry x="395" y="410" width="100" height="30" as="geometry"/>
                </mxCell>
                <mxCell id="81" value="ns: ParticipantRole" style="rounded=0;whiteSpace=wrap;html=1;snapToPoint=1;points=[[0.1,0],[0.2,0],[0.3,0],[0.4,0],[0.5,0],[0.6,0],[0.7,0],[0.8,0],[0.9,0],[0,0.1],[0,0.3],[0,0.5],[0,0.7],[0,0.9],[0.1,1],[0.2,1],[0.3,1],[0.4,1],[0.5,1],[0.6,1],[0.7,1],[0.8,1],[0.9,1],[1,0.1],[1,0.3],[1,0.5],[1,0.7],[1,0.9]];" parent="1" vertex="1">
                    <mxGeometry x="390" y="235" width="110" height="50" as="geometry"/>
                </mxCell>
                <mxCell id="82" value="ns: TemporalExtent" style="rounded=0;whiteSpace=wrap;html=1;snapToPoint=1;points=[[0.1,0],[0.2,0],[0.3,0],[0.4,0],[0.5,0],[0.6,0],[0.7,0],[0.8,0],[0.9,0],[0,0.1],[0,0.3],[0,0.5],[0,0.7],[0,0.9],[0.1,1],[0.2,1],[0.3,1],[0.4,1],[0.5,1],[0.6,1],[0.7,1],[0.8,1],[0.9,1],[1,0.1],[1,0.3],[1,0.5],[1,0.7],[1,0.9]];" parent="1" vertex="1">
                    <mxGeometry x="620" y="320" width="110" height="50" as="geometry"/>
                </mxCell>
                <mxCell id="83" value="" style="endArrow=classic;html=1;endSize=8;arcSize=0;entryX=0;entryY=0.5;entryDx=0;entryDy=0;exitX=1;exitY=0.5;exitDx=0;exitDy=0;" parent="1" source="79" target="82" edge="1">
                    <mxGeometry width="50" height="50" relative="1" as="geometry">
                        <mxPoint x="350" y="490" as="sourcePoint"/>
                        <mxPoint x="710" y="490" as="targetPoint"/>
                    </mxGeometry>
                </mxCell>
                <mxCell id="84" value="ns: hasTemporalExtent.TemporalExtent&amp;nbsp;" style="text;html=1;align=center;verticalAlign=middle;resizable=0;points=[];labelBackgroundColor=#ffffff;rotation=0;" parent="83" vertex="1" connectable="0">
                    <mxGeometry x="-0.1269" relative="1" as="geometry">
                        <mxPoint x="13" as="offset"/>
                    </mxGeometry>
                </mxCell>
                <mxCell id="86" value="&lt;div&gt;&amp;lt;&amp;lt;owl:ObjectProperty&amp;gt;&amp;gt; ns: isPerformedBy&lt;br&gt;&lt;/div&gt;" style="rhombus;whiteSpace=wrap;html=1;" parent="1" vertex="1">
                    <mxGeometry x="630" y="670" width="180" height="75" as="geometry"/>
                </mxCell>
                <mxCell id="87" value="&lt;div&gt;&amp;lt;&amp;lt;owl:ObjectProperty&amp;gt;&amp;gt; ns:performsAgentRole&lt;br&gt;&lt;/div&gt;" style="rhombus;whiteSpace=wrap;html=1;" parent="1" vertex="1">
                    <mxGeometry x="630" y="805.75" width="180" height="75" as="geometry"/>
                </mxCell>
                <mxCell id="88" value="" style="endArrow=open;html=1;fontColor=#000099;endFill=0;dashed=1;entryX=0.5;entryY=1;entryDx=0;entryDy=0;endSize=8;startArrow=open;startFill=0;startSize=8;" parent="1" source="87" target="86" edge="1">
                    <mxGeometry width="50" height="50" relative="1" as="geometry">
                        <mxPoint x="490" y="805" as="sourcePoint"/>
                        <mxPoint x="490" y="735" as="targetPoint"/>
                    </mxGeometry>
                </mxCell>
                <mxCell id="89" value="&amp;lt;&amp;lt;owl:inverseOf&amp;gt;&amp;gt;" style="text;html=1;align=center;verticalAlign=middle;resizable=0;points=[];fontColor=#000000;labelBackgroundColor=#ffffff;" parent="88" vertex="1" connectable="0">
                    <mxGeometry x="-0.3277" relative="1" as="geometry">
                        <mxPoint y="-7.14" as="offset"/>
                    </mxGeometry>
                </mxCell>
                <mxCell id="90" value="&lt;div&gt;&amp;lt;&amp;lt;owl:ObjectProperty&amp;gt;&amp;gt; ns:isProvidedBy&lt;br&gt;&lt;/div&gt;" style="rhombus;whiteSpace=wrap;html=1;" parent="1" vertex="1">
                    <mxGeometry x="425" y="670" width="180" height="75" as="geometry"/>
                </mxCell>
                <mxCell id="91" value="&lt;div&gt;&amp;lt;&amp;lt;owl:ObjectProperty&amp;gt;&amp;gt; ns:providesAgentRole&lt;br&gt;&lt;/div&gt;" style="rhombus;whiteSpace=wrap;html=1;" parent="1" vertex="1">
                    <mxGeometry x="425" y="805.75" width="180" height="75" as="geometry"/>
                </mxCell>
                <mxCell id="92" value="" style="endArrow=open;html=1;fontColor=#000099;endFill=0;dashed=1;entryX=0.5;entryY=1;entryDx=0;entryDy=0;endSize=8;startArrow=open;startFill=0;startSize=8;" parent="1" source="91" target="90" edge="1">
                    <mxGeometry width="50" height="50" relative="1" as="geometry">
                        <mxPoint x="285" y="805" as="sourcePoint"/>
                        <mxPoint x="285" y="735" as="targetPoint"/>
                    </mxGeometry>
                </mxCell>
                <mxCell id="93" value="&amp;lt;&amp;lt;owl:inverseOf&amp;gt;&amp;gt;" style="text;html=1;align=center;verticalAlign=middle;resizable=0;points=[];fontColor=#000000;labelBackgroundColor=#ffffff;" parent="92" vertex="1" connectable="0">
                    <mxGeometry x="-0.3277" relative="1" as="geometry">
                        <mxPoint y="-7.14" as="offset"/>
                    </mxGeometry>
                </mxCell>
                <mxCell id="101" value="" style="endArrow=classic;html=1;endSize=8;arcSize=0;exitX=1;exitY=0.5;exitDx=0;exitDy=0;entryX=0;entryY=0.5;entryDx=0;entryDy=0;" parent="1" source="78" target="80" edge="1">
                    <mxGeometry width="50" height="50" relative="1" as="geometry">
                        <mxPoint x="460" y="400" as="sourcePoint"/>
                        <mxPoint x="320" y="480" as="targetPoint"/>
                    </mxGeometry>
                </mxCell>
                <mxCell id="102" value="ns: providesAgentRole" style="text;html=1;align=center;verticalAlign=middle;resizable=0;points=[];labelBackgroundColor=#ffffff;" parent="101" vertex="1" connectable="0">
                    <mxGeometry x="-0.1269" relative="1" as="geometry">
                        <mxPoint x="-3" as="offset"/>
                    </mxGeometry>
                </mxCell>
                <mxCell id="104" value="" style="endArrow=classic;html=1;endSize=8;arcSize=0;exitX=0;exitY=0.9;exitDx=0;exitDy=0;entryX=0.8;entryY=1;entryDx=0;entryDy=0;" parent="1" source="82" target="79" edge="1">
                    <mxGeometry width="50" height="50" relative="1" as="geometry">
                        <mxPoint x="345" y="520" as="sourcePoint"/>
                        <mxPoint x="685" y="520" as="targetPoint"/>
                        <Array as="points">
                            <mxPoint x="440" y="370"/>
                        </Array>
                    </mxGeometry>
                </mxCell>
                <mxCell id="105" value="&lt;div&gt;&amp;lt;&amp;lt;owl:someValuesFrom&amp;gt;&amp;gt;&lt;/div&gt;ns:hasTemporalExtent.TemporalExtent" style="text;html=1;align=center;verticalAlign=middle;resizable=0;points=[];labelBackgroundColor=#ffffff;" parent="104" vertex="1" connectable="0">
                    <mxGeometry x="-0.1269" relative="1" as="geometry">
                        <mxPoint x="31" as="offset"/>
                    </mxGeometry>
                </mxCell>
                <mxCell id="106" value="&lt;div&gt;&amp;lt;&amp;lt;owl:DatatypeProperty&amp;gt;&amp;gt; ns:providesParticipantRole&lt;/div&gt;" style="rhombus;whiteSpace=wrap;html=1;" parent="1" vertex="1">
                    <mxGeometry x="230" y="670.0000000000001" width="180" height="75" as="geometry"/>
                </mxCell>
                <mxCell id="107" value="&lt;div&gt;&amp;lt;&amp;lt;owl:DatatypeProperty&amp;gt;&amp;gt; ns:providesAgentRole&lt;/div&gt;" style="rhombus;whiteSpace=wrap;html=1;" parent="1" vertex="1">
                    <mxGeometry x="230" y="815.0000000000001" width="180" height="75" as="geometry"/>
                </mxCell>
                <mxCell id="108" value="" style="endArrow=open;html=1;fontColor=#000099;endFill=0;dashed=1;endSize=8;arcSize=0;exitX=0.5;exitY=1;exitDx=0;exitDy=0;entryX=0.5;entryY=0;entryDx=0;entryDy=0;" parent="1" source="106" target="107" edge="1">
                    <mxGeometry width="50" height="50" relative="1" as="geometry">
                        <mxPoint x="90" y="805.0000000000001" as="sourcePoint"/>
                        <mxPoint x="260" y="750" as="targetPoint"/>
                    </mxGeometry>
                </mxCell>
                <mxCell id="109" value="&amp;lt;&amp;lt;rdfs:subPropertyOf&amp;gt;&amp;gt;" style="text;html=1;align=center;verticalAlign=middle;resizable=0;points=[];fontColor=#000000;labelBackgroundColor=#ffffff;" parent="108" vertex="1" connectable="0">
                    <mxGeometry x="-0.3277" relative="1" as="geometry">
                        <mxPoint y="-7.14" as="offset"/>
                    </mxGeometry>
                </mxCell>
                <mxCell id="110" value="&lt;div&gt;&amp;lt;&amp;lt;owl:ObjectProperty&amp;gt;&amp;gt; ns:hasAgentRole&lt;br&gt;&lt;/div&gt;" style="rhombus;whiteSpace=wrap;html=1;" parent="1" vertex="1">
                    <mxGeometry x="110" y="112.5" width="180" height="75" as="geometry"/>
                </mxCell>
                <mxCell id="113" value="" style="endArrow=open;html=1;fontColor=#000099;endFill=0;dashed=1;entryX=0.5;entryY=0;entryDx=0;entryDy=0;endSize=8;arcSize=0;exitX=0.5;exitY=1;exitDx=0;exitDy=0;" parent="1" source="110" target="79" edge="1">
                    <mxGeometry width="50" height="50" relative="1" as="geometry">
                        <mxPoint x="240" y="168.5" as="sourcePoint"/>
                        <mxPoint x="247.4999999999999" y="250" as="targetPoint"/>
                        <Array as="points"/>
                    </mxGeometry>
                </mxCell>
                <mxCell id="114" value="&lt;div&gt;&amp;lt;&amp;lt;rdfs:range&amp;gt;&amp;gt;&lt;/div&gt;" style="edgeLabel;html=1;align=center;verticalAlign=middle;resizable=0;points=[];" parent="113" vertex="1" connectable="0">
                    <mxGeometry x="-0.3525" y="-1" relative="1" as="geometry">
                        <mxPoint x="7.82" y="5.56" as="offset"/>
                    </mxGeometry>
                </mxCell>
                <mxCell id="118" value="&lt;div&gt;&amp;lt;&amp;lt;owl:ObjectProperty&amp;gt;&amp;gt; ns:hasTemporalExtent&lt;br&gt;&lt;/div&gt;" style="rhombus;whiteSpace=wrap;html=1;" parent="1" vertex="1">
                    <mxGeometry x="560" y="210" width="180" height="75" as="geometry"/>
                </mxCell>
                <mxCell id="119" value="&lt;div&gt;&amp;lt;&amp;lt;owl:ObjectProperty&amp;gt;&amp;gt; ns:hasParticipantRole&lt;br&gt;&lt;/div&gt;" style="rhombus;whiteSpace=wrap;html=1;" parent="1" vertex="1">
                    <mxGeometry x="300" y="90" width="180" height="75" as="geometry"/>
                </mxCell>
                <mxCell id="120" value="" style="endArrow=open;html=1;fontColor=#000099;endFill=0;dashed=1;entryX=0.5;entryY=0;entryDx=0;entryDy=0;endSize=8;arcSize=0;exitX=0.5;exitY=1;exitDx=0;exitDy=0;" parent="1" source="119" target="81" edge="1">
                    <mxGeometry width="50" height="50" relative="1" as="geometry">
                        <mxPoint x="344.33121019108273" y="159.99866242038215" as="sourcePoint"/>
                        <mxPoint x="380" y="238.47" as="targetPoint"/>
                        <Array as="points"/>
                    </mxGeometry>
                </mxCell>
                <mxCell id="121" value="&lt;div&gt;&amp;lt;&amp;lt;rdfs:range&amp;gt;&amp;gt;&lt;/div&gt;" style="edgeLabel;html=1;align=center;verticalAlign=middle;resizable=0;points=[];" parent="120" vertex="1" connectable="0">
                    <mxGeometry x="-0.3525" y="-1" relative="1" as="geometry">
                        <mxPoint x="7.82" y="5.56" as="offset"/>
                    </mxGeometry>
                </mxCell>
                <mxCell id="122" value="" style="endArrow=open;html=1;fontColor=#000099;endFill=0;dashed=1;entryX=0.5;entryY=0;entryDx=0;entryDy=0;endSize=8;arcSize=0;exitX=0.5;exitY=1;exitDx=0;exitDy=0;" parent="1" source="118" target="82" edge="1">
                    <mxGeometry width="50" height="50" relative="1" as="geometry">
                        <mxPoint x="569.3312101910827" y="261.52866242038215" as="sourcePoint"/>
                        <mxPoint x="605" y="340" as="targetPoint"/>
                        <Array as="points"/>
                    </mxGeometry>
                </mxCell>
                <mxCell id="123" value="&lt;div&gt;&amp;lt;&amp;lt;rdfs:range&amp;gt;&amp;gt;&lt;/div&gt;" style="edgeLabel;html=1;align=center;verticalAlign=middle;resizable=0;points=[];" parent="122" vertex="1" connectable="0">
                    <mxGeometry x="-0.3525" y="-1" relative="1" as="geometry">
                        <mxPoint x="7.82" y="5.56" as="offset"/>
                    </mxGeometry>
                </mxCell>
                <mxCell id="124" value="" style="endArrow=block;html=1;fontColor=#000099;exitX=0;exitY=0.5;exitDx=0;exitDy=0;endFill=0;entryX=1;entryY=0.1;entryDx=0;entryDy=0;endSize=8;arcSize=0;" parent="1" source="81" target="79" edge="1">
                    <mxGeometry width="50" height="50" relative="1" as="geometry">
                        <mxPoint x="30" y="410" as="sourcePoint"/>
                        <mxPoint x="30" y="340" as="targetPoint"/>
                    </mxGeometry>
                </mxCell>
                <mxCell id="130" value="&lt;div&gt;&amp;lt;&amp;lt;owl:ObjectProperty&amp;gt;&amp;gt; ns:providesParticipantRole&lt;br&gt;&lt;/div&gt;" style="rhombus;whiteSpace=wrap;html=1;" parent="1" vertex="1">
                    <mxGeometry x="490" y="90" width="180" height="75" as="geometry"/>
                </mxCell>
                <mxCell id="131" value="" style="endArrow=open;html=1;fontColor=#000099;endFill=0;dashed=1;entryX=0.6;entryY=0;entryDx=0;entryDy=0;endSize=8;arcSize=0;exitX=0.5;exitY=1;exitDx=0;exitDy=0;" parent="1" source="130" target="81" edge="1">
                    <mxGeometry width="50" height="50" relative="1" as="geometry">
                        <mxPoint x="490" y="150" as="sourcePoint"/>
                        <mxPoint x="545" y="220" as="targetPoint"/>
                        <Array as="points"/>
                    </mxGeometry>
                </mxCell>
                <mxCell id="132" value="&lt;div&gt;&amp;lt;&amp;lt;rdfs:range&amp;gt;&amp;gt;&lt;/div&gt;" style="edgeLabel;html=1;align=center;verticalAlign=middle;resizable=0;points=[];" parent="131" vertex="1" connectable="0">
                    <mxGeometry x="-0.3525" y="-1" relative="1" as="geometry">
                        <mxPoint x="7.82" y="5.56" as="offset"/>
                    </mxGeometry>
                </mxCell>
                <mxCell id="134" value="" style="endArrow=classic;html=1;endSize=8;arcSize=0;entryX=0;entryY=0.3;entryDx=0;entryDy=0;exitX=0.5;exitY=0;exitDx=0;exitDy=0;" parent="1" source="78" target="79" edge="1">
                    <mxGeometry width="50" height="50" relative="1" as="geometry">
                        <mxPoint x="180.0000000000001" y="596" as="sourcePoint"/>
                        <mxPoint x="380" y="450" as="targetPoint"/>
                        <Array as="points">
                            <mxPoint x="50" y="300"/>
                        </Array>
                    </mxGeometry>
                </mxCell>
                <mxCell id="135" value="&lt;div&gt;&lt;div&gt;&amp;lt;&amp;lt;owl:someValuesFrom&amp;gt;&amp;gt;&lt;/div&gt;ns:isPerfomedBy.Agent (1..1)&lt;/div&gt;" style="text;html=1;align=center;verticalAlign=middle;resizable=0;points=[];labelBackgroundColor=#ffffff;" parent="134" vertex="1" connectable="0">
                    <mxGeometry x="-0.1269" relative="1" as="geometry">
                        <mxPoint x="15" y="-3" as="offset"/>
                    </mxGeometry>
                </mxCell>
                <mxCell id="139" value="" style="endArrow=classic;html=1;exitX=0.6;exitY=1;exitDx=0;exitDy=0;entryX=0.7;entryY=0;entryDx=0;entryDy=0;endSize=8;arcSize=0;" parent="1" source="79" target="78" edge="1">
                    <mxGeometry width="50" height="50" relative="1" as="geometry">
                        <mxPoint x="270" y="480" as="sourcePoint"/>
                        <mxPoint x="467" y="480" as="targetPoint"/>
                        <Array as="points">
                            <mxPoint x="280" y="370"/>
                        </Array>
                    </mxGeometry>
                </mxCell>
                <mxCell id="140" value="&lt;div&gt;&amp;lt;&amp;lt;owl:allValuesFrom&amp;gt;&amp;gt;&lt;/div&gt;ns:isPerfomedBy.AgentRole" style="text;html=1;align=center;verticalAlign=middle;resizable=0;points=[];labelBackgroundColor=#ffffff;" parent="139" vertex="1" connectable="0">
                    <mxGeometry x="-0.1269" relative="1" as="geometry">
                        <mxPoint as="offset"/>
                    </mxGeometry>
                </mxCell>
            </root>
        </mxGraphModel>
    </diagram>
</mxfile>